<svg width="150" height="19" viewBox="0 0 150 19" fill="none" xmlns="http://www.w3.org/2000/svg">
<path d="M13.8359 9.28125V15.7969C13.5938 16.1172 13.2148 16.4688 12.6992 16.8516C12.1914 17.2266 11.5156 17.5508 10.6719 17.8242C9.82812 18.0977 8.77734 18.2344 7.51953 18.2344C6.44922 18.2344 5.46875 18.0547 4.57812 17.6953C3.6875 17.3281 2.91797 16.793 2.26953 16.0898C1.62891 15.3867 1.13281 14.5312 0.78125 13.5234C0.429688 12.5078 0.253906 11.3516 0.253906 10.0547V8.87109C0.253906 7.58203 0.414062 6.43359 0.734375 5.42578C1.0625 4.41016 1.53125 3.55078 2.14062 2.84766C2.75 2.14453 3.48438 1.61328 4.34375 1.25391C5.21094 0.886719 6.19141 0.703125 7.28516 0.703125C8.68359 0.703125 9.83984 0.9375 10.7539 1.40625C11.6758 1.86719 12.3867 2.50781 12.8867 3.32812C13.3867 4.14844 13.7031 5.08594 13.8359 6.14062H10.9531C10.8594 5.54688 10.6758 5.01562 10.4023 4.54688C10.1367 4.07812 9.75391 3.71094 9.25391 3.44531C8.76172 3.17188 8.12109 3.03516 7.33203 3.03516C6.65234 3.03516 6.05469 3.16406 5.53906 3.42188C5.02344 3.67969 4.59375 4.05859 4.25 4.55859C3.91406 5.05859 3.66016 5.66797 3.48828 6.38672C3.31641 7.10547 3.23047 7.92578 3.23047 8.84766V10.0547C3.23047 10.9922 3.32812 11.8242 3.52344 12.5508C3.72656 13.2773 4.01562 13.8906 4.39062 14.3906C4.77344 14.8906 5.23828 15.2695 5.78516 15.5273C6.33203 15.7773 6.94922 15.9023 7.63672 15.9023C8.30859 15.9023 8.85938 15.8477 9.28906 15.7383C9.71875 15.6211 10.0586 15.4844 10.3086 15.3281C10.5664 15.1641 10.7656 15.0078 10.9062 14.8594V11.4727H7.35547V9.28125H13.8359ZM16.2734 11.8008V11.5312C16.2734 10.6172 16.4062 9.76953 16.6719 8.98828C16.9375 8.19922 17.3203 7.51562 17.8203 6.9375C18.3281 6.35156 18.9453 5.89844 19.6719 5.57812C20.4062 5.25 21.2344 5.08594 22.1562 5.08594C23.0859 5.08594 23.9141 5.25 24.6406 5.57812C25.375 5.89844 25.9961 6.35156 26.5039 6.9375C27.0117 7.51562 27.3984 8.19922 27.6641 8.98828C27.9297 9.76953 28.0625 10.6172 28.0625 11.5312V11.8008C28.0625 12.7148 27.9297 13.5625 27.6641 14.3438C27.3984 15.125 27.0117 15.8086 26.5039 16.3945C25.9961 16.9727 25.3789 17.4258 24.6523 17.7539C23.9258 18.0742 23.1016 18.2344 22.1797 18.2344C21.25 18.2344 20.418 18.0742 19.6836 17.7539C18.957 17.4258 18.3398 16.9727 17.832 16.3945C17.3242 15.8086 16.9375 15.125 16.6719 14.3438C16.4062 13.5625 16.2734 12.7148 16.2734 11.8008ZM19.0977 11.5312V11.8008C19.0977 12.3711 19.1562 12.9102 19.2734 13.418C19.3906 13.9258 19.5742 14.3711 19.8242 14.7539C20.0742 15.1367 20.3945 15.4375 20.7852 15.6562C21.1758 15.875 21.6406 15.9844 22.1797 15.9844C22.7031 15.9844 23.1562 15.875 23.5391 15.6562C23.9297 15.4375 24.25 15.1367 24.5 14.7539C24.75 14.3711 24.9336 13.9258 25.0508 13.418C25.1758 12.9102 25.2383 12.3711 25.2383 11.8008V11.5312C25.2383 10.9688 25.1758 10.4375 25.0508 9.9375C24.9336 9.42969 24.7461 8.98047 24.4883 8.58984C24.2383 8.19922 23.918 7.89453 23.5273 7.67578C23.1445 7.44922 22.6875 7.33594 22.1562 7.33594C21.625 7.33594 21.1641 7.44922 20.7734 7.67578C20.3906 7.89453 20.0742 8.19922 19.8242 8.58984C19.5742 8.98047 19.3906 9.42969 19.2734 9.9375C19.1562 10.4375 19.0977 10.9688 19.0977 11.5312ZM33.4531 0V18H30.6172V0H33.4531ZM44.2812 15.375V0H47.1172V18H44.5508L44.2812 15.375ZM36.0312 11.8008V11.5547C36.0312 10.5938 36.1445 9.71875 36.3711 8.92969C36.5977 8.13281 36.9258 7.44922 37.3555 6.87891C37.7852 6.30078 38.3086 5.85938 38.9258 5.55469C39.543 5.24219 40.2383 5.08594 41.0117 5.08594C41.7773 5.08594 42.4492 5.23438 43.0273 5.53125C43.6055 5.82812 44.0977 6.25391 44.5039 6.80859C44.9102 7.35547 45.2344 8.01172 45.4766 8.77734C45.7188 9.53516 45.8906 10.3789 45.9922 11.3086V12.0938C45.8906 13 45.7188 13.8281 45.4766 14.5781C45.2344 15.3281 44.9102 15.9766 44.5039 16.5234C44.0977 17.0703 43.6016 17.4922 43.0156 17.7891C42.4375 18.0859 41.7617 18.2344 40.9883 18.2344C40.2227 18.2344 39.5312 18.0742 38.9141 17.7539C38.3047 17.4336 37.7852 16.9844 37.3555 16.4062C36.9258 15.8281 36.5977 15.1484 36.3711 14.3672C36.1445 13.5781 36.0312 12.7227 36.0312 11.8008ZM38.8555 11.5547V11.8008C38.8555 12.3789 38.9062 12.918 39.0078 13.418C39.1172 13.918 39.2852 14.3594 39.5117 14.7422C39.7383 15.1172 40.0312 15.4141 40.3906 15.6328C40.7578 15.8438 41.1953 15.9492 41.7031 15.9492C42.3438 15.9492 42.8711 15.8086 43.2852 15.5273C43.6992 15.2461 44.0234 14.8672 44.2578 14.3906C44.5 13.9062 44.6641 13.3672 44.75 12.7734V10.6523C44.7031 10.1914 44.6055 9.76172 44.457 9.36328C44.3164 8.96484 44.125 8.61719 43.8828 8.32031C43.6406 8.01562 43.3398 7.78125 42.9805 7.61719C42.6289 7.44531 42.2109 7.35938 41.7266 7.35938C41.2109 7.35938 40.7734 7.46875 40.4141 7.6875C40.0547 7.90625 39.7578 8.20703 39.5234 8.58984C39.2969 8.97266 39.1289 9.41797 39.0195 9.92578C38.9102 10.4336 38.8555 10.9766 38.8555 11.5547ZM55.6602 18.2344C54.7227 18.2344 53.875 18.082 53.1172 17.7773C52.3672 17.4648 51.7266 17.0312 51.1953 16.4766C50.6719 15.9219 50.2695 15.2695 49.9883 14.5195C49.707 13.7695 49.5664 12.9609 49.5664 12.0938V11.625C49.5664 10.6328 49.7109 9.73438 50 8.92969C50.2891 8.125 50.6914 7.4375 51.207 6.86719C51.7227 6.28906 52.332 5.84766 53.0352 5.54297C53.7383 5.23828 54.5 5.08594 55.3203 5.08594C56.2266 5.08594 57.0195 5.23828 57.6992 5.54297C58.3789 5.84766 58.9414 6.27734 59.3867 6.83203C59.8398 7.37891 60.1758 8.03125 60.3945 8.78906C60.6211 9.54688 60.7344 10.3828 60.7344 11.2969V12.5039H50.9375V10.4766H57.9453V10.2539C57.9297 9.74609 57.8281 9.26953 57.6406 8.82422C57.4609 8.37891 57.1836 8.01953 56.8086 7.74609C56.4336 7.47266 55.9336 7.33594 55.3086 7.33594C54.8398 7.33594 54.4219 7.4375 54.0547 7.64062C53.6953 7.83594 53.3945 8.12109 53.1523 8.49609C52.9102 8.87109 52.7227 9.32422 52.5898 9.85547C52.4648 10.3789 52.4023 10.9688 52.4023 11.625V12.0938C52.4023 12.6484 52.4766 13.1641 52.625 13.6406C52.7812 14.1094 53.0078 14.5195 53.3047 14.8711C53.6016 15.2227 53.9609 15.5 54.3828 15.7031C54.8047 15.8984 55.2852 15.9961 55.8242 15.9961C56.5039 15.9961 57.1094 15.8594 57.6406 15.5859C58.1719 15.3125 58.6328 14.9258 59.0234 14.4258L60.5117 15.8672C60.2383 16.2656 59.8828 16.6484 59.4453 17.0156C59.0078 17.375 58.4727 17.668 57.8398 17.8945C57.2148 18.1211 56.4883 18.2344 55.6602 18.2344ZM65.7383 8.02734V18H62.9141V5.32031H65.5742L65.7383 8.02734ZM65.2344 11.1914L64.3203 11.1797C64.3281 10.2812 64.4531 9.45703 64.6953 8.70703C64.9453 7.95703 65.2891 7.3125 65.7266 6.77344C66.1719 6.23438 66.7031 5.82031 67.3203 5.53125C67.9375 5.23438 68.625 5.08594 69.3828 5.08594C69.9922 5.08594 70.543 5.17188 71.0352 5.34375C71.5352 5.50781 71.9609 5.77734 72.3125 6.15234C72.6719 6.52734 72.9453 7.01562 73.1328 7.61719C73.3203 8.21094 73.4141 8.94141 73.4141 9.80859V18H70.5781V9.79688C70.5781 9.1875 70.4883 8.70703 70.3086 8.35547C70.1367 7.99609 69.8828 7.74219 69.5469 7.59375C69.2188 7.4375 68.8086 7.35938 68.3164 7.35938C67.832 7.35938 67.3984 7.46094 67.0156 7.66406C66.6328 7.86719 66.3086 8.14453 66.043 8.49609C65.7852 8.84766 65.5859 9.25391 65.4453 9.71484C65.3047 10.1758 65.2344 10.668 65.2344 11.1914ZM93.8281 8.0625V10.3945H84.7695V8.0625H93.8281ZM85.4961 0.9375V18H82.5547V0.9375H85.4961ZM96.0898 0.9375V18H93.1602V0.9375H96.0898ZM98.7734 11.8008V11.5312C98.7734 10.6172 98.9062 9.76953 99.1719 8.98828C99.4375 8.19922 99.8203 7.51562 100.32 6.9375C100.828 6.35156 101.445 5.89844 102.172 5.57812C102.906 5.25 103.734 5.08594 104.656 5.08594C105.586 5.08594 106.414 5.25 107.141 5.57812C107.875 5.89844 108.496 6.35156 109.004 6.9375C109.512 7.51562 109.898 8.19922 110.164 8.98828C110.43 9.76953 110.562 10.6172 110.562 11.5312V11.8008C110.562 12.7148 110.43 13.5625 110.164 14.3438C109.898 15.125 109.512 15.8086 109.004 16.3945C108.496 16.9727 107.879 17.4258 107.152 17.7539C106.426 18.0742 105.602 18.2344 104.68 18.2344C103.75 18.2344 102.918 18.0742 102.184 17.7539C101.457 17.4258 100.84 16.9727 100.332 16.3945C99.8242 15.8086 99.4375 15.125 99.1719 14.3438C98.9062 13.5625 98.7734 12.7148 98.7734 11.8008ZM101.598 11.5312V11.8008C101.598 12.3711 101.656 12.9102 101.773 13.418C101.891 13.9258 102.074 14.3711 102.324 14.7539C102.574 15.1367 102.895 15.4375 103.285 15.6562C103.676 15.875 104.141 15.9844 104.68 15.9844C105.203 15.9844 105.656 15.875 106.039 15.6562C106.43 15.4375 106.75 15.1367 107 14.7539C107.25 14.3711 107.434 13.9258 107.551 13.418C107.676 12.9102 107.738 12.3711 107.738 11.8008V11.5312C107.738 10.9688 107.676 10.4375 107.551 9.9375C107.434 9.42969 107.246 8.98047 106.988 8.58984C106.738 8.19922 106.418 7.89453 106.027 7.67578C105.645 7.44922 105.188 7.33594 104.656 7.33594C104.125 7.33594 103.664 7.44922 103.273 7.67578C102.891 7.89453 102.574 8.19922 102.324 8.58984C102.074 8.98047 101.891 9.42969 101.773 9.9375C101.656 10.4375 101.598 10.9688 101.598 11.5312ZM120.559 15.0117V5.32031H123.395V18H120.723L120.559 15.0117ZM120.957 12.375L121.906 12.3516C121.906 13.2031 121.812 13.9883 121.625 14.707C121.438 15.418 121.148 16.0391 120.758 16.5703C120.367 17.0938 119.867 17.5039 119.258 17.8008C118.648 18.0898 117.918 18.2344 117.066 18.2344C116.449 18.2344 115.883 18.1445 115.367 17.9648C114.852 17.7852 114.406 17.5078 114.031 17.1328C113.664 16.7578 113.379 16.2695 113.176 15.668C112.973 15.0664 112.871 14.3477 112.871 13.5117V5.32031H115.695V13.5352C115.695 13.9961 115.75 14.3828 115.859 14.6953C115.969 15 116.117 15.2461 116.305 15.4336C116.492 15.6211 116.711 15.7539 116.961 15.832C117.211 15.9102 117.477 15.9492 117.758 15.9492C118.562 15.9492 119.195 15.793 119.656 15.4805C120.125 15.1602 120.457 14.7305 120.652 14.1914C120.855 13.6523 120.957 13.0469 120.957 12.375ZM133.402 14.5664C133.402 14.2852 133.332 14.0312 133.191 13.8047C133.051 13.5703 132.781 13.3594 132.383 13.1719C131.992 12.9844 131.414 12.8125 130.648 12.6562C129.977 12.5078 129.359 12.332 128.797 12.1289C128.242 11.918 127.766 11.6641 127.367 11.3672C126.969 11.0703 126.66 10.7188 126.441 10.3125C126.223 9.90625 126.113 9.4375 126.113 8.90625C126.113 8.39062 126.227 7.90234 126.453 7.44141C126.68 6.98047 127.004 6.57422 127.426 6.22266C127.848 5.87109 128.359 5.59375 128.961 5.39062C129.57 5.1875 130.25 5.08594 131 5.08594C132.062 5.08594 132.973 5.26562 133.73 5.625C134.496 5.97656 135.082 6.45703 135.488 7.06641C135.895 7.66797 136.098 8.34766 136.098 9.10547H133.273C133.273 8.76953 133.188 8.45703 133.016 8.16797C132.852 7.87109 132.602 7.63281 132.266 7.45312C131.93 7.26562 131.508 7.17188 131 7.17188C130.516 7.17188 130.113 7.25 129.793 7.40625C129.48 7.55469 129.246 7.75 129.09 7.99219C128.941 8.23438 128.867 8.5 128.867 8.78906C128.867 9 128.906 9.19141 128.984 9.36328C129.07 9.52734 129.211 9.67969 129.406 9.82031C129.602 9.95312 129.867 10.0781 130.203 10.1953C130.547 10.3125 130.977 10.4258 131.492 10.5352C132.461 10.7383 133.293 11 133.988 11.3203C134.691 11.6328 135.23 12.0391 135.605 12.5391C135.98 13.0312 136.168 13.6562 136.168 14.4141C136.168 14.9766 136.047 15.4922 135.805 15.9609C135.57 16.4219 135.227 16.8242 134.773 17.168C134.32 17.5039 133.777 17.7656 133.145 17.9531C132.52 18.1406 131.816 18.2344 131.035 18.2344C129.887 18.2344 128.914 18.0312 128.117 17.625C127.32 17.2109 126.715 16.6836 126.301 16.043C125.895 15.3945 125.691 14.7227 125.691 14.0273H128.422C128.453 14.5508 128.598 14.9688 128.855 15.2812C129.121 15.5859 129.449 15.8086 129.84 15.9492C130.238 16.082 130.648 16.1484 131.07 16.1484C131.578 16.1484 132.004 16.082 132.348 15.9492C132.691 15.8086 132.953 15.6211 133.133 15.3867C133.312 15.1445 133.402 14.8711 133.402 14.5664ZM144.23 18.2344C143.293 18.2344 142.445 18.082 141.688 17.7773C140.938 17.4648 140.297 17.0312 139.766 16.4766C139.242 15.9219 138.84 15.2695 138.559 14.5195C138.277 13.7695 138.137 12.9609 138.137 12.0938V11.625C138.137 10.6328 138.281 9.73438 138.57 8.92969C138.859 8.125 139.262 7.4375 139.777 6.86719C140.293 6.28906 140.902 5.84766 141.605 5.54297C142.309 5.23828 143.07 5.08594 143.891 5.08594C144.797 5.08594 145.59 5.23828 146.27 5.54297C146.949 5.84766 147.512 6.27734 147.957 6.83203C148.41 7.37891 148.746 8.03125 148.965 8.78906C149.191 9.54688 149.305 10.3828 149.305 11.2969V12.5039H139.508V10.4766H146.516V10.2539C146.5 9.74609 146.398 9.26953 146.211 8.82422C146.031 8.37891 145.754 8.01953 145.379 7.74609C145.004 7.47266 144.504 7.33594 143.879 7.33594C143.41 7.33594 142.992 7.4375 142.625 7.64062C142.266 7.83594 141.965 8.12109 141.723 8.49609C141.48 8.87109 141.293 9.32422 141.16 9.85547C141.035 10.3789 140.973 10.9688 140.973 11.625V12.0938C140.973 12.6484 141.047 13.1641 141.195 13.6406C141.352 14.1094 141.578 14.5195 141.875 14.8711C142.172 15.2227 142.531 15.5 142.953 15.7031C143.375 15.8984 143.855 15.9961 144.395 15.9961C145.074 15.9961 145.68 15.8594 146.211 15.5859C146.742 15.3125 147.203 14.9258 147.594 14.4258L149.082 15.8672C148.809 16.2656 148.453 16.6484 148.016 17.0156C147.578 17.375 147.043 17.668 146.41 17.8945C145.785 18.1211 145.059 18.2344 144.23 18.2344Z" fill="black"/>
</svg>
